<?xml version="1.0" encoding="UTF-8" ?>
<!DOCTYPE svg PUBLIC "-//W3C//DTD SVG 1.1//EN" "http://www.w3.org/Graphics/SVG/1.1/DTD/svg11.dtd">
<svg width="36px" height="36px" viewBox="0 0 924 924" version="1.1" xmlns="http://www.w3.org/2000/svg">
<path fill-opacity="0" d=" M 0.00 0.00 L 924.00 0.00 L 924.00 924.00 L 0.00 924.00 L 0.00 0.00 Z" />
<path fill="#e25335" d=" M 465.38 100.02 C 486.29 135.41 506.55 171.18 527.30 206.66 C 564.45 271.06 601.81 335.35 638.89 399.79 C 608.04 418.63 577.24 437.54 546.37 456.35 C 543.77 457.90 541.29 459.69 538.49 460.88 C 517.71 424.88 496.73 389.00 475.89 353.03 C 472.53 347.44 469.49 341.65 465.95 336.17 L 465.06 336.09 C 442.07 375.56 419.44 415.26 396.48 454.77 C 392.14 448.91 388.58 442.51 384.72 436.33 C 374.22 419.45 363.86 402.49 353.38 385.59 C 344.40 370.81 334.94 356.31 326.24 341.36 C 372.66 260.93 419.06 180.50 465.38 100.02 Z" />
<path fill="#ed9823" d=" M 65.74 793.31 C 152.44 642.59 239.46 492.03 326.24 341.36 C 334.94 356.31 344.40 370.81 353.38 385.59 C 363.86 402.49 374.22 419.45 384.72 436.33 C 388.58 442.51 392.14 448.91 396.48 454.77 C 355.93 525.40 315.05 595.87 274.46 666.49 C 269.96 673.82 266.19 681.64 261.33 688.72 C 257.94 692.16 253.22 693.67 249.17 696.12 C 195.22 725.54 141.30 754.98 87.29 784.29 C 80.18 788.29 73.02 792.23 65.76 795.95 C 65.75 795.29 65.74 793.97 65.74 793.31 Z" />
<path fill="#1b6be2" d=" M 697.94 506.97 C 698.40 506.77 699.31 506.36 699.76 506.16 C 755.80 603.34 811.84 700.53 867.89 797.70 C 853.94 798.37 839.93 797.92 825.96 798.02 C 767.61 798.04 709.26 798.06 650.92 797.96 C 638.23 798.10 625.46 798.29 612.82 797.70 C 593.60 765.35 574.74 732.79 555.60 700.39 C 553.79 697.02 551.39 693.98 550.08 690.37 C 589.96 690.18 629.86 690.28 669.75 690.32 C 669.40 687.77 667.58 685.83 666.44 683.63 C 643.02 642.98 619.52 602.38 596.19 561.68 C 630.13 543.49 664.02 525.20 697.94 506.97 Z" />
<path fill="#f5c533" d=" M 249.17 696.12 C 253.22 693.67 257.94 692.16 261.33 688.72 C 261.64 689.12 262.27 689.93 262.58 690.33 C 358.41 690.32 454.25 690.25 550.08 690.37 C 551.39 693.98 553.79 697.02 555.60 700.39 C 574.74 732.79 593.60 765.35 612.82 797.70 C 583.59 798.79 554.24 797.74 525.01 798.15 C 519.68 797.39 514.33 798.68 509.00 798.05 C 504.99 797.60 500.99 798.46 496.99 798.18 C 490.67 797.52 484.33 798.68 478.01 798.01 C 473.31 797.38 468.62 798.66 463.93 798.01 C 459.30 797.46 454.67 798.43 450.03 798.21 C 443.01 797.64 435.97 798.63 428.95 797.97 C 423.62 798.45 418.30 797.88 412.97 797.79 C 392.65 798.68 372.31 797.80 352.00 798.18 C 338.31 798.34 324.65 797.78 310.99 798.20 C 286.32 798.10 261.69 797.82 237.03 798.14 C 227.36 797.82 217.66 798.61 207.98 797.94 C 204.98 797.78 201.98 798.48 198.98 798.08 C 189.97 797.18 180.95 798.78 171.94 797.97 C 161.62 798.63 151.30 797.64 140.99 798.23 C 133.98 797.63 126.97 798.66 119.97 797.87 C 107.64 798.23 95.33 798.02 83.00 797.84 C 76.33 798.55 69.65 798.04 62.99 797.54 C 63.84 796.08 64.71 794.63 65.74 793.31 C 65.74 793.97 65.75 795.29 65.76 795.95 C 73.02 792.23 80.18 788.29 87.29 784.29 C 141.30 754.98 195.22 725.54 249.17 696.12 Z" />
</svg>
